<svg xmlns="http://www.w3.org/2000/svg" viewBox="0 0 995.33 134.16"><defs><style>.cls-1{fill:#fff;}</style></defs><title>Asset 1</title><g id="Layer_2" data-name="Layer 2"><g id="Layer_1-2" data-name="Layer 1"><path class="cls-1" d="M154.55,50a12.31,12.31,0,0,1,4.12-2.73,13.77,13.77,0,0,1,5.1-.94q6,0,9.11,3.59A11.48,11.48,0,0,1,175,53.7a11.48,11.48,0,0,0-2.1-3.81q-3.12-3.59-9.11-3.59a13.77,13.77,0,0,0-5.1.94A12.31,12.31,0,0,0,154.55,50a12.17,12.17,0,0,0-2.46,3.73h0A12.17,12.17,0,0,1,154.55,50"/><path class="cls-1" d="M150.76,60.6h0a19.14,19.14,0,0,1,.49-4.43,19.14,19.14,0,0,0-.49,4.43"/><path class="cls-1" d="M132.83,60.6h0a28.37,28.37,0,0,0-.33-4.43,28.37,28.37,0,0,1,.33,4.43"/><path class="cls-1" d="M113.78,48.23A14.28,14.28,0,0,1,121,46.3q5.86,0,8.86,3.41a10.73,10.73,0,0,1,2.1,4,10.73,10.73,0,0,0-2.1-4q-3-3.41-8.86-3.41a14.28,14.28,0,0,0-7.19,1.93,24.14,24.14,0,0,0-6.25,5.25,24.14,24.14,0,0,1,6.25-5.25"/><path class="cls-1" d="M176,60.6h0a25.05,25.05,0,0,0-.38-4.43A25.05,25.05,0,0,1,176,60.6"/><path class="cls-1" d="M105.14,36.69l1.16,5.57a41,41,0,0,1,4.08-4,26.25,26.25,0,0,1,4.56-3.11,24.72,24.72,0,0,1,5.2-2.06,23.08,23.08,0,0,1,6.11-.76,17.27,17.27,0,0,1,11.53,3.81,23,23,0,0,1,6.76,10.12A22.72,22.72,0,0,1,148.88,40a23.71,23.71,0,0,1,5.71-4.31,25.88,25.88,0,0,1,6.61-2.46,31.24,31.24,0,0,1,7.05-.8,29.48,29.48,0,0,1,10.92,1.88,21,21,0,0,1,8,5.52,24.25,24.25,0,0,1,4.95,8.84,32.26,32.26,0,0,1,1.19,5.08,32.26,32.26,0,0,0-1.19-5.08,24.38,24.38,0,0,0-4.95-8.85,21,21,0,0,0-8-5.51,29.47,29.47,0,0,0-10.92-1.89,31.26,31.26,0,0,0-7.05.81,25.88,25.88,0,0,0-6.61,2.46A23.71,23.71,0,0,0,148.88,40a22.72,22.72,0,0,0-4.34,6.35,23,23,0,0,0-6.76-10.12,17.27,17.27,0,0,0-11.53-3.81,22.67,22.67,0,0,0-6.11.77,24.19,24.19,0,0,0-5.2,2.06,26.88,26.88,0,0,0-4.56,3.12,41.5,41.5,0,0,0-4.08,4l-1.16-5.63a4.47,4.47,0,0,0-4.55-3.36h0a4.47,4.47,0,0,1,4.55,3.36"/><path class="cls-1" d="M193.84,60.6c0-1.54-.07-3-.2-4.43.13,1.41.2,2.89.2,4.43Z"/><rect class="cls-1" x="89.65" y="56.17" width="17.9" height="29.63"/><path class="cls-1" d="M193.64,56.17h-18a27.38,27.38,0,0,1,.41,4.32h0v25.3H194V60.6c0-1.54-.18-3-.31-4.43"/><rect class="cls-1" x="176.05" y="88.26" width="17.9" height="19.75"/><rect class="cls-1" x="132.85" y="88.26" width="17.9" height="19.75"/><path class="cls-1" d="M107.55,53.7h0a20.62,20.62,0,0,1,6.24-5.37,14.36,14.36,0,0,1,7.2-2c3.9,0,6.85,1.11,8.85,3.38a10.45,10.45,0,0,1,2.1,4h20.16a11.77,11.77,0,0,1,6.58-6.46,13.77,13.77,0,0,1,5.1-.94q6,0,9.11,3.59A11.48,11.48,0,0,1,175,53.7h18.35a32.26,32.26,0,0,0-1.19-5.08,24.25,24.25,0,0,0-4.95-8.84,21,21,0,0,0-8-5.52,29.48,29.48,0,0,0-10.92-1.88,31.24,31.24,0,0,0-7.05.8,25.88,25.88,0,0,0-6.61,2.46A23.71,23.71,0,0,0,148.88,40a22.72,22.72,0,0,0-4.34,6.35,23,23,0,0,0-6.76-10.12,17.32,17.32,0,0,0-11.53-3.8,22.67,22.67,0,0,0-6.11.76,24.72,24.72,0,0,0-5.2,2.06,26.88,26.88,0,0,0-4.56,3.12,41.5,41.5,0,0,0-4.08,4l-1.16-5.63a4.47,4.47,0,0,0-4.55-3.36H89.65V53.7Z"/><rect class="cls-1" x="89.65" y="88.26" width="17.9" height="19.75"/><path class="cls-1" d="M150.76,60.49a20.66,20.66,0,0,1,.49-4.32H132.5a31,31,0,0,1,.34,4.32h0v25.3h17.9V60.49Z"/><path class="cls-1" d="M259.12,56.17H241.57a26.55,26.55,0,0,1,.53,4.9v4.38a86.6,86.6,0,0,0-21.24,2.19,46.94,46.94,0,0,0-13.69,5.5,20.91,20.91,0,0,0-7.35,7.42,18.74,18.74,0,0,0-1.92,5.23h17A8,8,0,0,1,216,83.5a10.81,10.81,0,0,1,4.51-3.58A35.38,35.38,0,0,1,229,77.4a70.2,70.2,0,0,1,13.11-1v9.37h17.28V61a39.23,39.23,0,0,0-.26-4.79"/><path class="cls-1" d="M242.1,88.87a30.27,30.27,0,0,1-3.93,3.47,23.67,23.67,0,0,1-4,2.46,19.11,19.11,0,0,1-4.39,1.5,24.21,24.21,0,0,1-5.07.5,12,12,0,0,1-7.27-2c-1.79-1.33-2.71-3.49-2.77-6.5h-17c0,.21,0,.43,0,.64a22.67,22.67,0,0,0,1.59,8.81,17.41,17.41,0,0,0,4.44,6.33,18.52,18.52,0,0,0,6.84,3.82,28.2,28.2,0,0,0,8.67,1.28,36.48,36.48,0,0,0,7.23-.66,28.6,28.6,0,0,0,6.14-2,33.87,33.87,0,0,0,5.6-3.22,61.19,61.19,0,0,0,5.54-4.46l1.59,5.29a4.94,4.94,0,0,0,2.16,3.1,8.6,8.6,0,0,0,4,.78h8V88.26H242.1Z"/><path class="cls-1" d="M257.56,49.35a25.55,25.55,0,0,0-5.38-9.1,24.59,24.59,0,0,0-8.64-6,29.69,29.69,0,0,0-11.6-2.15q-18.08,0-30.87,11.76l3.25,5.73a7.39,7.39,0,0,0,2.1,2.32,5.11,5.11,0,0,0,3.1.94,7.93,7.93,0,0,0,4-1c1.2-.68,2.52-1.44,3.94-2.29a28.74,28.74,0,0,1,5-2.28,22,22,0,0,1,7.24-1q6,0,9.14,3.62a11.37,11.37,0,0,1,2.09,3.78h17.8a31.55,31.55,0,0,0-1.17-4.35"/><path class="cls-1" d="M268,88.53c0,6.43,1.87,11.48,5.34,15.13s8.48,5.48,14.89,5.48a33.61,33.61,0,0,0,10.52-1.67,27.18,27.18,0,0,0,9-4.94l-5.34-8.71a6.55,6.55,0,0,0-1.08-1.19,2.08,2.08,0,0,0-1.3-.4,2.5,2.5,0,0,0-1.3.4c-.43.27-.93.54-1.48.84a18.08,18.08,0,0,1-2,.83,8.47,8.47,0,0,1-2.78.4,5.89,5.89,0,0,1-4.63-2,7.41,7.41,0,0,1-1.69-4.47H268Z"/><rect class="cls-1" x="268.02" y="56.17" width="17.9" height="29.63"/><path class="cls-1" d="M285.92,46.91h19.75V34H285.92V10.49h-9a4.3,4.3,0,0,0-2.64.93,3.78,3.78,0,0,0-1.34,2.31l-3.61,20.35-11.78,2v7.12a3.5,3.5,0,0,0,.9,2.8,3.23,3.23,0,0,0,2.35.92H268V53.7h17.9Z"/><path class="cls-1" d="M320.19,70.61a41.26,41.26,0,0,1,1.17-10.27,24.6,24.6,0,0,1,1.44-4.17H304a47.91,47.91,0,0,0-2.11,14.44,47.76,47.76,0,0,0,2.26,15.18h19a25.76,25.76,0,0,1-1.71-4.59,40.5,40.5,0,0,1-1.27-10.59"/><path class="cls-1" d="M311.7,99a30.2,30.2,0,0,0,10.59,7.51,32.93,32.93,0,0,0,12.95,2.57,54,54,0,0,0,7.87-.58,36.17,36.17,0,0,0,7.7-2,34.61,34.61,0,0,0,7.19-3.77,32.57,32.57,0,0,0,6.44-5.84l-5.14-6.53a3.59,3.59,0,0,0-3.25-1.67,4.67,4.67,0,0,0-3,1c-.89.7-1.94,1.47-3.15,2.32a21.06,21.06,0,0,1-4.44,2.32,19,19,0,0,1-6.9,1,17.54,17.54,0,0,1-7.66-1.62,15.89,15.89,0,0,1-5.79-4.8c-.18-.24-.35-.49-.52-.74H305.08A35.57,35.57,0,0,0,311.7,99"/><path class="cls-1" d="M324.86,52.62a15.69,15.69,0,0,1,5.89-4.9A18.75,18.75,0,0,1,339,46a19.55,19.55,0,0,1,6.18.84,22.17,22.17,0,0,1,4.3,1.89c1.21.7,2.25,1.33,3.12,1.88a4.91,4.91,0,0,0,2.67.84,3.56,3.56,0,0,0,2.2-.59A8.43,8.43,0,0,0,359,49.28l4.69-6.53a35.67,35.67,0,0,0-11.24-7.7,36.83,36.83,0,0,0-14.56-2.68,38.6,38.6,0,0,0-15.47,2.91,31.76,31.76,0,0,0-11.28,8,33.93,33.93,0,0,0-6.28,10.41h19.25c.24-.38.47-.74.73-1.08"/><path class="cls-1" d="M391.26,48.41a18.54,18.54,0,0,1,8.67-2.11q6.29,0,9.44,3.74a12.29,12.29,0,0,1,2.06,3.66H429.8a33.65,33.65,0,0,0-1.06-4.53A25.55,25.55,0,0,0,424,40.25a21.22,21.22,0,0,0-7.83-5.81,26.54,26.54,0,0,0-10.78-2.07,27.81,27.81,0,0,0-12.29,2.54,41.71,41.71,0,0,0-9.62,6.68V0h-17.9V53.7h18.51a30.25,30.25,0,0,1,7.21-5.29"/><rect class="cls-1" x="365.54" y="56.17" width="17.9" height="29.63"/><rect class="cls-1" x="365.54" y="88.26" width="17.9" height="19.75"/><path class="cls-1" d="M430.15,56.17h-18a23.59,23.59,0,0,1,.34,4.43V85.79h17.9V60.6c0-1.53-.06-3-.2-4.43"/><rect class="cls-1" x="412.45" y="88.26" width="17.9" height="19.75"/><rect class="cls-1" x="435.9" y="88.26" width="17.9" height="19.75"/><rect class="cls-1" x="435.9" y="56.17" width="17.9" height="29.63"/><rect class="cls-1" x="435.9" y="33.33" width="17.9" height="20.37"/><path class="cls-1" d="M437.08,19.75a11.75,11.75,0,0,0,3.58,2.43,10.68,10.68,0,0,0,4.38.91,11.08,11.08,0,0,0,4.48-.91,12.07,12.07,0,0,0,3.65-2.43,11.85,11.85,0,0,0,2.49-3.55,10.23,10.23,0,0,0,.94-4.36,10.87,10.87,0,0,0-.94-4.5,11.61,11.61,0,0,0-2.49-3.63,12.26,12.26,0,0,0-3.65-2.43A11.24,11.24,0,0,0,445,.38a10.83,10.83,0,0,0-4.38.9,11.93,11.93,0,0,0-3.58,2.43,11.6,11.6,0,0,0-2.42,3.63,11.34,11.34,0,0,0-.9,4.5,10.67,10.67,0,0,0,.9,4.36,11.83,11.83,0,0,0,2.42,3.55"/><path class="cls-1" d="M486.6,48.41a18.58,18.58,0,0,1,8.68-2.11q6.29,0,9.43,3.74a12.08,12.08,0,0,1,2.06,3.66h18.38a33.66,33.66,0,0,0-1.07-4.53,25.37,25.37,0,0,0-4.77-8.92,21.26,21.26,0,0,0-7.84-5.81,26.49,26.49,0,0,0-10.77-2.07,31.38,31.38,0,0,0-6.94.73,27.23,27.23,0,0,0-6,2.1,33.7,33.7,0,0,0-5.27,3.26,41.73,41.73,0,0,0-4.74,4.22l-1.23-6A4.47,4.47,0,0,0,472,33.33H461.21V53.7H479.4a30.61,30.61,0,0,1,7.2-5.29"/><rect class="cls-1" x="508.12" y="88.26" width="17.28" height="19.75"/><path class="cls-1" d="M525.49,56.17h-18a22.66,22.66,0,0,1,.66,4.43V85.79H525.4V60.6c0-1.53.23-3,.09-4.43"/><rect class="cls-1" x="461.21" y="88.26" width="17.9" height="19.75"/><rect class="cls-1" x="461.21" y="56.17" width="17.9" height="29.63"/><path class="cls-1" d="M531.85,89.4a11.83,11.83,0,0,0,1.67,6.6,12.11,12.11,0,0,0,4.4,4.06,21.88,21.88,0,0,0-8.81,5.66,12.68,12.68,0,0,0-3.19,8.79,14.79,14.79,0,0,0,2,7.39,18.9,18.9,0,0,0,6.12,6.28,34,34,0,0,0,10.29,4.35A58.24,58.24,0,0,0,559,134.16,48.13,48.13,0,0,0,574.21,132a36.81,36.81,0,0,0,11.24-5.86,25.81,25.81,0,0,0,7-8.3,20.55,20.55,0,0,0,2.43-9.61,16.58,16.58,0,0,0-2.06-8.7,15.29,15.29,0,0,0-5.43-5.35,25.27,25.27,0,0,0-7.62-2.87A69.42,69.42,0,0,0,571,90c-3-.24-5.91-.36-8.76-.36a59.78,59.78,0,0,1-7.62-.44,19.49,19.49,0,0,1-4.07-.92H531.92a10.9,10.9,0,0,0-.07,1.14m11.39,17.52a16.2,16.2,0,0,1,4.88-4,29.49,29.49,0,0,0,6.9.76H562a53.12,53.12,0,0,1,6.36.41,26.34,26.34,0,0,1,5.24,1.16,8.5,8.5,0,0,1,3.54,2.2,5.14,5.14,0,0,1,1.31,3.64,8.18,8.18,0,0,1-1.09,4.11,9.17,9.17,0,0,1-3.43,3.26,20.6,20.6,0,0,1-6,2.15,41.24,41.24,0,0,1-8.6.78,42.65,42.65,0,0,1-8.32-.69,18.92,18.92,0,0,1-5.53-1.92,8.25,8.25,0,0,1-3.1-2.94,7.28,7.28,0,0,1-1-3.67,8.14,8.14,0,0,1,1.85-5.26"/><path class="cls-1" d="M550.65,79.61a41.43,41.43,0,0,0,8.16.79,37.52,37.52,0,0,0,11.54-1.7,28.44,28.44,0,0,0,9.18-4.82,22,22,0,0,0,8.28-17.57c0-.05,0-.09,0-.14H572c0,.19,0,.38,0,.58a14.21,14.21,0,0,1-.83,4.93,10.18,10.18,0,0,1-2.46,3.85A11.12,11.12,0,0,1,564.6,68a18.72,18.72,0,0,1-11.53,0A11.13,11.13,0,0,1,549,65.5a10.58,10.58,0,0,1-2.46-3.89,14,14,0,0,1-.83-4.86c0-.2,0-.39,0-.58H529.4s0,.09,0,.14a21.78,21.78,0,0,0,3.22,11.9,23.37,23.37,0,0,0,8.86,8.13,20.49,20.49,0,0,0-4.27,2.8,17.35,17.35,0,0,0-3,3.3,14.16,14.16,0,0,0-1.71,3.35h15a3.89,3.89,0,0,1-.26-1.44c0-1.75,1.15-3.33,3.47-4.74"/><path class="cls-1" d="M549,48q3.28-3.23,9.86-3.23T568.68,48a10.76,10.76,0,0,1,3,5.69h16a17.52,17.52,0,0,0-.26-1.81,23,23,0,0,0-1.11-4l6.65-1.23A5.49,5.49,0,0,0,596,45.36a3.76,3.76,0,0,0,1-2.61v-7H575.45a31.5,31.5,0,0,0-7.67-2.73,42.41,42.41,0,0,0-20.71.79,27.94,27.94,0,0,0-9.33,4.85,22.32,22.32,0,0,0-6.14,7.62,21.41,21.41,0,0,0-2.07,7.37H546A10.69,10.69,0,0,1,549,48"/><path class="cls-1" d="M661.84,56.17l-7.53,20.42a64.81,64.81,0,0,0-2.14,6.82c-.2.8-.37,1.59-.56,2.38h15.71L679,56.17Z"/><path class="cls-1" d="M688,33.33H673.9a5.24,5.24,0,0,0-3.11,1A5.11,5.11,0,0,0,669,36.79L662.75,53.7H680Z"/><path class="cls-1" d="M647.14,76.59l-7.35-20.42H621.86L633.6,85.79h16.17c-.18-.79-.37-1.58-.57-2.38-.55-2.22-1.23-4.49-2.06-6.82"/><path class="cls-1" d="M632.84,36.84A5.21,5.21,0,0,0,631,34.35a5.64,5.64,0,0,0-3.29-1H612.89l8,20.37h18Z"/><path class="cls-1" d="M650.69,90.09c-.12-.61-.26-1.22-.38-1.83H634.58l7.8,19.75h16.19l7.78-19.75H651.07c-.13.61-.26,1.22-.38,1.83"/><rect class="cls-1" x="689.58" y="33.33" width="17.9" height="20.37"/><rect class="cls-1" x="689.58" y="88.26" width="17.9" height="19.75"/><rect class="cls-1" x="689.58" y="56.17" width="17.9" height="29.63"/><path class="cls-1" d="M690.59,19.75a11.75,11.75,0,0,0,3.58,2.43,10.64,10.64,0,0,0,4.38.91,11.11,11.11,0,0,0,4.48-.91,12.07,12.07,0,0,0,3.65-2.43,12.36,12.36,0,0,0,2.49-3.55,10.23,10.23,0,0,0,.94-4.36,10.83,10.83,0,0,0-.94-4.5,12,12,0,0,0-2.49-3.63A12.26,12.26,0,0,0,703,1.28a11.28,11.28,0,0,0-4.48-.9,10.8,10.8,0,0,0-4.38.9,11.93,11.93,0,0,0-3.58,2.43,11.6,11.6,0,0,0-2.42,3.63,11.3,11.3,0,0,0-.9,4.5,10.67,10.67,0,0,0,.9,4.36,12,12,0,0,0,2.42,3.55"/><path class="cls-1" d="M749,91a7.34,7.34,0,0,1-2.16,2.86,11.44,11.44,0,0,1-3.76,2,17.24,17.24,0,0,1-5.46.77,20.1,20.1,0,0,1-6.69-1,30.21,30.21,0,0,1-4.59-2c-1.3-.73-2.44-1.41-3.44-2a5.72,5.72,0,0,0-3.14-1,5.2,5.2,0,0,0-2.74.66,5.74,5.74,0,0,0-1.89,1.88L711,100a29.69,29.69,0,0,0,5,3.63,39,39,0,0,0,6.21,2.9,43.17,43.17,0,0,0,7,1.92,39.28,39.28,0,0,0,7.48.7,39.68,39.68,0,0,0,12.68-1.86,26.73,26.73,0,0,0,9.3-5.14,21.86,21.86,0,0,0,5.71-7.84,23.5,23.5,0,0,0,1.68-6H749.62A8.55,8.55,0,0,1,749,91"/><path class="cls-1" d="M764.8,76.7a17.64,17.64,0,0,0-4.13-5.47,23.23,23.23,0,0,0-5.82-3.78Q751.61,66,748.2,64.8c-2.26-.77-4.48-1.48-6.64-2.14a39.09,39.09,0,0,1-5.83-2.21,13.6,13.6,0,0,1-4.11-2.87,5.94,5.94,0,0,1-1-1.41H713.17a19.57,19.57,0,0,0,1.53,7.32,17.68,17.68,0,0,0,4.12,5.88,22.84,22.84,0,0,0,5.85,4,61.89,61.89,0,0,0,6.73,2.72c2.29.78,4.52,1.49,6.72,2.14A40.22,40.22,0,0,1,744,80.4a13.81,13.81,0,0,1,4.12,2.91,5.71,5.71,0,0,1,1.34,2.48h16.87c0-.46,0-.92,0-1.4a17.55,17.55,0,0,0-1.55-7.69"/><path class="cls-1" d="M730.06,53.56a7,7,0,0,1,3-5.88c2-1.5,4.8-2.24,8.31-2.24a21.37,21.37,0,0,1,5.89.72,31.63,31.63,0,0,1,4.45,1.63l3.43,1.63a6.3,6.3,0,0,0,2.78.73,4,4,0,0,0,2-.47,4.94,4.94,0,0,0,1.52-1.63l4-6.46a31.28,31.28,0,0,0-10.48-6.68,36.78,36.78,0,0,0-14-2.54A36.39,36.39,0,0,0,729,34.22a26.5,26.5,0,0,0-8.74,4.93A20.52,20.52,0,0,0,715,46.38a21.45,21.45,0,0,0-1.76,7.32h16.88c0-.05,0-.1,0-.14"/><path class="cls-1" d="M959.05,53.56a7,7,0,0,1,3-5.88c2-1.5,4.8-2.24,8.32-2.24a21.37,21.37,0,0,1,5.89.72,31.48,31.48,0,0,1,4.44,1.63c1.3.61,2.45,1.15,3.43,1.63a6.31,6.31,0,0,0,2.79.73,4,4,0,0,0,2-.47,4.82,4.82,0,0,0,1.51-1.63l4.06-6.46a31.53,31.53,0,0,0-10.49-6.68,36.82,36.82,0,0,0-13.95-2.54A36.39,36.39,0,0,0,958,34.22a26.66,26.66,0,0,0-8.75,4.93,20.49,20.49,0,0,0-5.31,7.23,21.22,21.22,0,0,0-1.76,7.32h16.87v-.14"/><path class="cls-1" d="M943.68,63.49a17.85,17.85,0,0,0,4.13,5.88,22.84,22.84,0,0,0,5.85,4,61.73,61.73,0,0,0,6.72,2.72q3.43,1.17,6.73,2.14A39.64,39.64,0,0,1,973,80.4a13.55,13.55,0,0,1,4.12,2.91,5.52,5.52,0,0,1,1.34,2.48H995.3c0-.46,0-.92,0-1.4a16.59,16.59,0,0,0-5.67-13.16,23.23,23.23,0,0,0-5.82-3.78q-3.26-1.49-6.65-2.65t-6.65-2.14a39,39,0,0,1-5.82-2.21,14.14,14.14,0,0,1-4.12-2.86,5.55,5.55,0,0,1-1-1.42H942.15a19.77,19.77,0,0,0,1.53,7.32"/><path class="cls-1" d="M978,91a7.37,7.37,0,0,1-2.17,2.86,11.34,11.34,0,0,1-3.76,2,17.19,17.19,0,0,1-5.46.77,20,20,0,0,1-6.68-1,30.21,30.21,0,0,1-4.59-2c-1.3-.73-2.45-1.41-3.44-2a5.74,5.74,0,0,0-3.14-1,5.23,5.23,0,0,0-2.75.66,5.91,5.91,0,0,0-1.88,1.88L940,100a30.19,30.19,0,0,0,5,3.63,39,39,0,0,0,6.21,2.9,43.17,43.17,0,0,0,7,1.92,42.66,42.66,0,0,0,20.16-1.16,26.6,26.6,0,0,0,9.29-5.14,21.88,21.88,0,0,0,5.72-7.84,23.89,23.89,0,0,0,1.67-6H978.6A8.53,8.53,0,0,1,978,91"/><rect class="cls-1" x="771.67" y="88.26" width="17.9" height="19.75"/><rect class="cls-1" x="771.67" y="56.17" width="17.9" height="29.63"/><path class="cls-1" d="M772.71,19.75a11.63,11.63,0,0,0,3.58,2.43,10.63,10.63,0,0,0,4.37.91,11,11,0,0,0,4.48-.91,11.83,11.83,0,0,0,3.65-2.43,12,12,0,0,0,2.49-3.55,10.24,10.24,0,0,0,1-4.36,10.84,10.84,0,0,0-1-4.5,11.61,11.61,0,0,0-2.49-3.63,12,12,0,0,0-3.65-2.43,11.17,11.17,0,0,0-4.48-.9,10.78,10.78,0,0,0-4.37.9,11.8,11.8,0,0,0-3.58,2.43,11.6,11.6,0,0,0-2.42,3.63,11.31,11.31,0,0,0-.91,4.5,10.68,10.68,0,0,0,.91,4.36,12,12,0,0,0,2.42,3.55"/><rect class="cls-1" x="771.67" y="33.33" width="17.9" height="20.37"/><path class="cls-1" d="M865.73,56.17H847c1.59,3.83,2.4,8.69,2.4,14.58q0,9.23-2.61,15h18.7a46.77,46.77,0,0,0,2.34-15.18,47,47,0,0,0-2.11-14.44"/><path class="cls-1" d="M817.38,52.43q4.49-6.34,13.88-6.35T845,52.39c.29.42.56.86.82,1.31h19.06a33.51,33.51,0,0,0-7-11,32.47,32.47,0,0,0-11.53-7.63,44,44,0,0,0-30.18,0,32.75,32.75,0,0,0-11.6,7.63,33.49,33.49,0,0,0-7,11h19.07c.25-.44.52-.86.8-1.27"/><path class="cls-1" d="M815.34,56.17H796.61a46.41,46.41,0,0,0-2.14,14.44,46,46,0,0,0,2.37,15.18h18.71q-2.65-5.83-2.65-15,0-8.82,2.44-14.58"/><path class="cls-1" d="M845,89q-4.44,6.24-13.7,6.24T817.38,89c-.17-.24-.33-.49-.5-.74h-19.1a34.2,34.2,0,0,0,6.77,10.43,32.23,32.23,0,0,0,11.6,7.69,43.82,43.82,0,0,0,30.18,0,32,32,0,0,0,11.53-7.69,33.69,33.69,0,0,0,6.71-10.43H845.48c-.17.27-.34.52-.52.78"/><rect class="cls-1" x="871.65" y="56.17" width="17.91" height="29.63"/><path class="cls-1" d="M936.07,56.17H918a23,23,0,0,1,.53,4.43V85.79h17.9V60.6a41.66,41.66,0,0,0-.4-4.43"/><rect class="cls-1" x="871.65" y="88.26" width="17.91" height="19.75"/><path class="cls-1" d="M897.19,48.41a18.57,18.57,0,0,1,8.67-2.11q6.28,0,9.44,3.74a12.08,12.08,0,0,1,2.06,3.66h18.38a33.66,33.66,0,0,0-1.07-4.53,25.7,25.7,0,0,0-4.77-8.92,21.26,21.26,0,0,0-7.84-5.81,26.54,26.54,0,0,0-10.78-2.07,31.45,31.45,0,0,0-6.94.73,27,27,0,0,0-6,2.1,34.27,34.27,0,0,0-5.28,3.26,41.64,41.64,0,0,0-4.73,4.22l-1.23-6a4.47,4.47,0,0,0-4.55-3.36H871.65V53.7H890a30.45,30.45,0,0,1,7.21-5.29"/><rect class="cls-1" x="918.57" y="88.26" width="17.9" height="19.75"/><path class="cls-1" d="M175.61,56.17h0A15.63,15.63,0,0,0,175,53.7h0a15.63,15.63,0,0,1,.63,2.47"/><path class="cls-1" d="M193.64,56.17h0c-.08-.85-.19-1.68-.31-2.47.12.79.23,1.62.31,2.47"/><polygon class="cls-1" points="69.79 53.7 32.03 16.04 0 16.04 37.76 53.7 0 91.35 32.03 91.35 69.79 53.7"/><polygon class="cls-1" points="0 124.67 32.03 124.67 69.79 87.03 53.76 71.05 0 124.67"/><polygon class="cls-1" points="32.03 49.38 0 49.38 20.41 69.72 36.43 53.76 32.03 49.38"/></g></g></svg>